<svg width="557" height="450" viewBox="0 0 557 450" fill="none" xmlns="http://www.w3.org/2000/svg">
<path d="M188 410H545" stroke="black" stroke-width="4"/>
<path d="M197.25 11L194.39 13.1998C194.144 13.3891 194 13.6819 194 13.9924V27.5C194 28.0523 194.448 28.5 195 28.5H213.5C214.052 28.5 214.5 28.0523 214.5 27.5V9.5C214.5 8.94772 214.052 8.5 213.5 8.5H209M197.25 11L200.23 8.70738C200.405 8.57291 200.62 8.5 200.84 8.5H209M197.25 11V3C197.25 2.44772 197.698 2 198.25 2H208C208.552 2 209 2.44772 209 3V8.5M398 50.8422V42.3729C398 41.8728 397.631 41.4496 397.135 41.3821L387.375 40.0511C387.133 40.0182 386.888 40.0747 386.685 40.2099L381.445 43.7031C381.167 43.8886 381 44.2008 381 44.5352V48.6363C381 49.1324 381.364 49.5535 381.855 49.6257L396.855 51.8315C397.458 51.9203 398 51.4524 398 50.8422Z" stroke="black" stroke-width="4"/>
<path d="M545 136.299V448H58V84.7217L545 136.299Z" stroke="black" stroke-width="4"/>
<path d="M54 448H20V160.466L54 91.5713V448Z" stroke="black" stroke-width="4"/>
<path d="M407.923 54.4443L542.7 120.212L55.9062 65.2666L141.858 22.0576L407.923 54.4443Z" stroke="black" stroke-width="4"/>
<path d="M129 129.5V152H116V129.5H129ZM112 129.5V152H99V129.5H112ZM129 103V125.5H116V103H129ZM112 103V125.5H99V103H112Z" stroke="black" stroke-width="4"/>
<path d="M519 369.5V392H506V369.5H519ZM502 369.5V392H489V369.5H502ZM519 343V365.5H506V343H519ZM502 343V365.5H489V343H502Z" stroke="black" stroke-width="4"/>
<path d="M142.5 45L160.107 46.9035C160.615 46.9584 161 47.387 161 47.8977V69C161 69.5523 160.552 70 160 70H142.5M142.5 45V70M142.5 45L135.561 46.7347C134.991 46.8772 134.666 47.4783 134.859 48.0333L142.5 70" stroke="black" stroke-width="4"/>
<path d="M235 55L252.607 56.9035C253.115 56.9584 253.5 57.387 253.5 57.8977V79C253.5 79.5523 253.052 80 252.5 80H235M235 55V80M235 55L228.061 56.7347C227.491 56.8772 227.166 57.4783 227.359 58.0333L235 80" stroke="black" stroke-width="4"/>
<path d="M312 64L329.607 65.9035C330.115 65.9584 330.5 66.387 330.5 66.8977V88C330.5 88.5523 330.052 89 329.5 89H312M312 64V89M312 64L305.061 65.7347C304.491 65.8772 304.166 66.4783 304.359 67.0333L312 89" stroke="black" stroke-width="4"/>
<path d="M385 72L402.607 73.9035C403.115 73.9584 403.5 74.387 403.5 74.8977V96C403.5 96.5523 403.052 97 402.5 97H385M385 72V97M385 72L378.061 73.7347C377.491 73.8772 377.166 74.4783 377.359 75.0333L385 97" stroke="black" stroke-width="4"/>
<path d="M441.226 91L450.106 91.9449C450.614 91.999 451 92.4279 451 92.9392V103C451 103.552 450.552 104 450 104H441.226M441.226 91V104M441.226 91L438.072 91.7763C437.498 91.9175 437.171 92.5232 437.368 93.0805L441.226 104" stroke="black" stroke-width="4"/>
<path d="M479 368.5V391H466V368.5H479ZM462 368.5V391H449V368.5H462ZM479 342V364.5H466V342H479ZM462 342V364.5H449V342H462Z" stroke="black" stroke-width="4"/>
<path d="M409 368.5V391H396V368.5H409ZM392 368.5V391H379V368.5H392ZM409 342V364.5H396V342H409ZM392 342V364.5H379V342H392Z" stroke="black" stroke-width="4"/>
<path d="M362 368.5V391H349V368.5H362ZM345 368.5V391H332V368.5H345ZM362 342V364.5H349V342H362ZM345 342V364.5H332V342H345Z" stroke="black" stroke-width="4"/>
<path d="M315 368.5V391H302V368.5H315ZM298 368.5V391H285V368.5H298ZM315 342V364.5H302V342H315ZM298 342V364.5H285V342H298Z" stroke="black" stroke-width="4"/>
<path d="M259 367.5V390H246V367.5H259ZM242 367.5V390H229V367.5H242ZM259 341V363.5H246V341H259ZM242 341V363.5H229V341H242Z" stroke="black" stroke-width="4"/>
<path d="M409 294.5V317H396V294.5H409ZM392 294.5V317H379V294.5H392ZM409 268V290.5H396V268H409ZM392 268V290.5H379V268H392Z" stroke="black" stroke-width="4"/>
<path d="M479 162.5V185H466V162.5H479ZM462 162.5V185H449V162.5H462ZM479 136V158.5H466V136H479ZM462 136V158.5H449V136H462Z" stroke="black" stroke-width="4"/>
<path d="M519 168.5V191H506V168.5H519ZM502 168.5V191H489V168.5H502ZM519 142V164.5H506V142H519ZM502 142V164.5H489V142H502Z" stroke="black" stroke-width="4"/>
<path d="M479 232.5V255H466V232.5H479ZM462 232.5V255H449V232.5H462ZM479 206V228.5H466V206H479ZM462 206V228.5H449V206H462Z" stroke="black" stroke-width="4"/>
<path d="M519 235.5V258H506V235.5H519ZM502 235.5V258H489V235.5H502ZM519 209V231.5H506V209H519ZM502 209V231.5H489V209H502Z" stroke="black" stroke-width="4"/>
<path d="M479 298.5V321H466V298.5H479ZM462 298.5V321H449V298.5H462ZM479 272V294.5H466V272H479ZM462 272V294.5H449V272H462Z" stroke="black" stroke-width="4"/>
<path d="M519 302.5V325H506V302.5H519ZM502 302.5V325H489V302.5H502ZM519 276V298.5H506V276H519ZM502 276V298.5H489V276H502Z" stroke="black" stroke-width="4"/>
<path d="M409 227.5V250H396V227.5H409ZM392 227.5V250H379V227.5H392ZM409 201V223.5H396V201H409ZM392 201V223.5H379V201H392Z" stroke="black" stroke-width="4"/>
<path d="M362 294.5V317H349V294.5H362ZM345 294.5V317H332V294.5H345ZM362 268V290.5H349V268H362ZM345 268V290.5H332V268H345Z" stroke="black" stroke-width="4"/>
<path d="M409 156.5V179H396V156.5H409ZM392 156.5V179H379V156.5H392ZM409 130V152.5H396V130H409ZM392 130V152.5H379V130H392Z" stroke="black" stroke-width="4"/>
<path d="M362 224.5V247H349V224.5H362ZM345 224.5V247H332V224.5H345ZM362 198V220.5H349V198H362ZM345 198V220.5H332V198H345Z" stroke="black" stroke-width="4"/>
<path d="M315 221.5V244H302V221.5H315ZM298 221.5V244H285V221.5H298ZM315 195V217.5H302V195H315ZM298 195V217.5H285V195H298Z" stroke="black" stroke-width="4"/>
<path d="M362 151.5V174H349V151.5H362ZM345 151.5V174H332V151.5H345ZM362 125V147.5H349V125H362ZM345 125V147.5H332V125H345Z" stroke="black" stroke-width="4"/>
<path d="M315 294.5V317H302V294.5H315ZM298 294.5V317H285V294.5H298ZM315 268V290.5H302V268H315ZM298 268V290.5H285V268H298Z" stroke="black" stroke-width="4"/>
<path d="M315 147.5V170H302V147.5H315ZM298 147.5V170H285V147.5H298ZM315 121V143.5H302V121H315ZM298 121V143.5H285V121H298Z" stroke="black" stroke-width="4"/>
<path d="M259 291.5V314H246V291.5H259ZM242 291.5V314H229V291.5H242ZM259 265V287.5H246V265H259ZM242 265V287.5H229V265H242Z" stroke="black" stroke-width="4"/>
<path d="M259 215.5V238H246V215.5H259ZM242 215.5V238H229V215.5H242ZM259 189V211.5H246V189H259ZM242 189V211.5H229V189H242Z" stroke="black" stroke-width="4"/>
<path d="M259 143.5V166H246V143.5H259ZM242 143.5V166H229V143.5H242ZM259 117V139.5H246V117H259ZM242 117V139.5H229V117H242Z" stroke="black" stroke-width="4"/>
<path d="M173 285.5V308H160V285.5H173ZM156 285.5V308H143V285.5H156ZM173 259V281.5H160V259H173ZM156 259V281.5H143V259H156Z" stroke="black" stroke-width="4"/>
<path d="M129 285.5V308H116V285.5H129ZM112 285.5V308H99V285.5H112ZM129 259V281.5H116V259H129ZM112 259V281.5H99V259H112Z" stroke="black" stroke-width="4"/>
<path d="M173 209.5V232H160V209.5H173ZM156 209.5V232H143V209.5H156ZM173 183V205.5H160V183H173ZM156 183V205.5H143V183H156Z" stroke="black" stroke-width="4"/>
<path d="M129 207.5V230H116V207.5H129ZM112 207.5V230H99V207.5H112ZM129 181V203.5H116V181H129ZM112 181V203.5H99V181H112Z" stroke="black" stroke-width="4"/>
<path d="M173 134.5V157H160V134.5H173ZM156 134.5V157H143V134.5H156ZM173 108V130.5H160V108H173ZM156 108V130.5H143V108H156Z" stroke="black" stroke-width="4"/>
<path d="M133 344C163.076 344 187 368.377 187 398.5V446.5H79V398.5C79 368.377 102.924 344 133 344Z" stroke="black" stroke-width="4"/>
<path d="M95 360C95 360 78.5894 360 104.5 360C130.41 360 151 380.901 151 406.685V447.999" stroke="black" stroke-width="4"/>
<path d="M58.0319 83.1679L19.3023 158.619L13.8903 153.507L49.4279 71.0566L58.0319 83.1679Z" stroke="black" stroke-width="4"/>
<path d="M553.453 120.185L545.823 135.847L303.484 107.264L303.459 107.261L303.435 107.259L58.8516 84.6162L50.7363 66.3574L553.453 120.185Z" stroke="black" stroke-width="4"/>
<line x1="232" y1="410" x2="232" y2="448" stroke="black" stroke-width="4"/>
<line x1="209" y1="410" x2="209" y2="448" stroke="black" stroke-width="4"/>
<line x1="426" y1="109" x2="426" y2="448" stroke="black" stroke-width="4"/>
<line x1="209" y1="84" x2="209" y2="448" stroke="black" stroke-width="4"/>
<line x1="404" y1="410" x2="404" y2="448" stroke="black" stroke-width="4"/>
<line x1="514" y1="410" x2="514" y2="448" stroke="black" stroke-width="4"/>
<line x1="494" y1="410" x2="494" y2="448" stroke="black" stroke-width="4"/>
<line x1="472" y1="410" x2="472" y2="448" stroke="black" stroke-width="4"/>
<line x1="449" y1="410" x2="449" y2="448" stroke="black" stroke-width="4"/>
<line x1="382" y1="410" x2="382" y2="448" stroke="black" stroke-width="4"/>
<line x1="356" y1="410" x2="356" y2="448" stroke="black" stroke-width="4"/>
<line x1="332" y1="410" x2="332" y2="448" stroke="black" stroke-width="4"/>
<line x1="256" y1="410" x2="256" y2="448" stroke="black" stroke-width="4"/>
<line x1="56.0613" y1="314.001" x2="545.061" y2="329.001" stroke="black" stroke-width="4"/>
<line x1="186.88" y1="26.3165" x2="206.88" y2="81.3165" stroke="black" stroke-width="4"/>
<path d="M32.5 401.5H29V368.354L32.5 366.953V401.5Z" stroke="black" stroke-width="4"/>
<path d="M43.5 306.5H40V273.354L43.5 271.953V306.5Z" stroke="black" stroke-width="4"/>
<path d="M32.5 249.5H29V216.354L32.5 214.953V249.5Z" stroke="black" stroke-width="4"/>
<path d="M45.5 232.5H42V199.354L45.5 197.953V232.5Z" stroke="black" stroke-width="4"/>
<path d="M32.5 193.5H29V160.354L32.5 158.953V193.5Z" stroke="black" stroke-width="4"/>
<path d="M45.5 164.5H42V131.354L45.5 129.953V164.5Z" stroke="black" stroke-width="4"/>
<path d="M32.5 318.5H29V285.354L32.5 283.953V318.5Z" stroke="black" stroke-width="4"/>
</svg>
