<svg width="100" height="100" viewBox="0 0 100 100" fill="none" xmlns="http://www.w3.org/2000/svg">
<rect width="100" height="100" fill="white"/>
<path d="M35.5659 80.4819H93.7377" stroke="black"/>
<path d="M37.073 15.4665L36.9337 15.5737C36.6877 15.763 36.5435 16.0558 36.5435 16.3663V17.3181C36.5435 17.8704 36.9912 18.3181 37.5435 18.3181H38.8839C39.4361 18.3181 39.8839 17.8704 39.8839 17.3181V15.9554C39.8839 15.4604 39.4826 15.0592 38.9876 15.0592V15.0592M37.073 15.4665L37.333 15.2665C37.5078 15.1321 37.7222 15.0592 37.9427 15.0592H38.9876M37.073 15.4665V14.9573C37.073 14.4286 37.5016 14 38.0303 14V14C38.559 14 38.9876 14.4286 38.9876 14.9573V15.0592M69.7845 21.1718V21.1718C69.7845 20.7505 69.4732 20.3939 69.0558 20.337L68.367 20.2431C68.1254 20.2101 67.8801 20.2666 67.6772 20.4019L67.2997 20.6536C67.1215 20.7724 67.0144 20.9724 67.0144 21.1866V21.1866C67.0144 21.5044 67.2474 21.7742 67.5618 21.8205L68.8194 22.0054C69.328 22.0802 69.7845 21.6859 69.7845 21.1718Z" stroke="black"/>
<path d="M15.1096 27.7314L93.1165 35.9932C93.3706 36.0203 93.5637 36.2346 93.5637 36.4902V86C93.5637 86.276 93.3397 86.4999 93.0637 86.5H15.0569C14.7808 86.5 14.5569 86.2761 14.5569 86V28.2285L14.5686 28.1211C14.6218 27.8781 14.8511 27.7041 15.1096 27.7314Z" stroke="black"/>
<path d="M12.6082 31.2629C12.8423 30.7886 13.5574 30.9556 13.5574 31.4846V85.9993C13.5574 86.2753 13.3333 86.499 13.0574 86.4993H8.86499C8.58885 86.4993 8.36499 86.2754 8.36499 85.9993V39.9788C8.36499 39.902 8.38279 39.8259 8.41675 39.7571L12.6082 31.2629Z" stroke="black"/>
<path d="M28.2288 17.4663L71.2678 22.7046C71.3229 22.7113 71.3771 22.7271 71.427 22.7515L89.7737 31.7046C90.2783 31.9508 90.0563 32.7139 89.4983 32.6509L16.3127 24.3901C15.819 24.334 15.7007 23.67 16.1448 23.4468L27.9436 17.5151C28.0315 17.471 28.1311 17.4544 28.2288 17.4663Z" stroke="black"/>
<path d="M23.0082 34.95V38.2673H21.7377C21.4615 38.2673 21.2377 38.0435 21.2377 37.7673V34.95H23.0082ZM25.7777 34.95V37.7673C25.7777 38.0435 25.5539 38.2673 25.2777 38.2673H24.0082V34.95H25.7777ZM25.2777 30.6316C25.5539 30.6316 25.7777 30.8554 25.7777 31.1316V33.95H24.0082V30.6316H25.2777ZM21.7377 30.6316H23.0082V33.95H21.2377V31.1316C21.2377 30.8554 21.4615 30.6316 21.7377 30.6316Z" stroke="black"/>
<path d="M86.5573 74.0569V77.3743H85.2867C85.0106 77.3743 84.7867 77.1504 84.7867 76.8743V74.0569H86.5573ZM89.3268 74.0569V76.8743C89.3268 77.1504 89.1029 77.3743 88.8268 77.3743H87.5573V74.0569H89.3268ZM88.8268 69.7385C89.1029 69.7385 89.3268 69.9624 89.3268 70.2385V73.0569H87.5573V69.7385H88.8268ZM85.2867 69.7385H86.5573V73.0569H84.7867V70.2385C84.7867 69.9624 85.0106 69.7385 85.2867 69.7385Z" stroke="black"/>
<path d="M28.1518 21.0066L30.2738 21.236C30.7815 21.2909 31.1663 21.7195 31.1663 22.2302V24.0802C31.1663 24.6325 30.7186 25.0802 30.1663 25.0802H28.1518M28.1518 21.0066V25.0802M28.1518 21.0066L27.9096 21.0671C27.3395 21.2097 27.0146 21.8107 27.2077 22.3658L28.1518 25.0802" stroke="black"/>
<path d="M43.2243 22.6362L45.3463 22.8656C45.8541 22.9205 46.2389 23.3492 46.2389 23.8598V25.7099C46.2389 26.2622 45.7911 26.7099 45.2389 26.7099H43.2243M43.2243 22.6362V26.7099M43.2243 22.6362L42.9822 22.6968C42.412 22.8393 42.0871 23.4404 42.2802 23.9954L43.2243 26.7099" stroke="black"/>
<path d="M55.7712 24.1023L57.8932 24.3317C58.4009 24.3866 58.7857 24.8152 58.7857 25.3259V27.176C58.7857 27.7282 58.338 28.176 57.7857 28.176H55.7712M55.7712 24.1023V28.176M55.7712 24.1023L55.529 24.1628C54.9589 24.3054 54.634 24.9065 54.8271 25.4615L55.7712 28.176" stroke="black"/>
<path d="M67.6662 25.4062L69.7882 25.6357C70.296 25.6905 70.6807 26.1192 70.6807 26.6299V28.4799C70.6807 29.0322 70.233 29.4799 69.6807 29.4799H67.6662M67.6662 25.4062V29.4799M67.6662 25.4062L67.424 25.4668C66.8539 25.6093 66.529 26.2104 66.7221 26.7655L67.6662 29.4799" stroke="black"/>
<path d="M76.8281 28.502L77.5265 28.5763C78.0349 28.6304 78.4207 29.0593 78.4207 29.5707V29.6203C78.4207 30.1725 77.9729 30.6203 77.4207 30.6203H76.8281M76.8281 28.502V30.6203M76.8281 28.502V28.502C76.4592 28.5927 76.2491 28.9819 76.3757 29.3401L76.8281 30.6203" stroke="black"/>
<path d="M80.0396 73.8938V77.2112H78.769C78.4929 77.2112 78.269 76.9873 78.269 76.7112V73.8938H80.0396ZM82.8091 73.8938V76.7112C82.8091 76.9873 82.5852 77.2112 82.3091 77.2112H81.0396V73.8938H82.8091ZM82.3091 69.5754C82.5852 69.5754 82.8091 69.7993 82.8091 70.0754V72.8938H81.0396V69.5754H82.3091ZM78.769 69.5754H80.0396V72.8938H78.269V70.0754C78.269 69.7993 78.4929 69.5754 78.769 69.5754Z" stroke="black"/>
<path d="M68.6332 73.8938V77.2112H67.3627C67.0865 77.2112 66.8627 76.9873 66.8627 76.7112V73.8938H68.6332ZM71.4027 73.8938V76.7112C71.4027 76.9873 71.1789 77.2112 70.9027 77.2112H69.6332V73.8938H71.4027ZM70.9027 69.5754C71.1789 69.5754 71.4027 69.7993 71.4027 70.0754V72.8938H69.6332V69.5754H70.9027ZM67.3627 69.5754H68.6332V72.8938H66.8627V70.0754C66.8627 69.7993 67.0865 69.5754 67.3627 69.5754Z" stroke="black"/>
<path d="M60.9747 73.8938V77.2112H59.7042C59.4281 77.2112 59.2042 76.9873 59.2042 76.7112V73.8938H60.9747ZM63.7443 73.8938V76.7112C63.7443 76.9873 63.5204 77.2112 63.2443 77.2112H61.9747V73.8938H63.7443ZM63.2443 69.5754C63.5204 69.5754 63.7443 69.7993 63.7443 70.0754V72.8938H61.9747V69.5754H63.2443ZM59.7042 69.5754H60.9747V72.8938H59.2042V70.0754C59.2042 69.7993 59.4281 69.5754 59.7042 69.5754Z" stroke="black"/>
<path d="M53.3163 73.8938V77.2112H52.0458C51.7696 77.2112 51.5458 76.9873 51.5458 76.7112V73.8938H53.3163ZM56.0858 73.8938V76.7112C56.0858 76.9873 55.862 77.2112 55.5858 77.2112H54.3163V73.8938H56.0858ZM55.5858 69.5754C55.862 69.5754 56.0858 69.7993 56.0858 70.0754V72.8938H54.3163V69.5754H55.5858ZM52.0458 69.5754H53.3163V72.8938H51.5458V70.0754C51.5458 69.7993 51.7696 69.5754 52.0458 69.5754Z" stroke="black"/>
<path d="M44.1913 73.7314V77.0488H42.9208C42.6446 77.0488 42.4208 76.825 42.4208 76.5488V73.7314H44.1913ZM46.9608 73.7314V76.5488C46.9608 76.825 46.737 77.0488 46.4608 77.0488H45.1913V73.7314H46.9608ZM46.4608 69.4131C46.737 69.4131 46.9608 69.6369 46.9608 69.9131V72.7314H45.1913V69.4131H46.4608ZM42.9208 69.4131H44.1913V72.7314H42.4208V69.9131C42.4208 69.6369 42.6446 69.4131 42.9208 69.4131Z" stroke="black"/>
<path d="M68.6332 61.8364V65.1538H67.3627C67.0865 65.1538 66.8627 64.93 66.8627 64.6538V61.8364H68.6332ZM71.4027 61.8364V64.6538C71.4027 64.93 71.1789 65.1538 70.9027 65.1538H69.6332V61.8364H71.4027ZM70.9027 57.5181C71.1789 57.5181 71.4027 57.7419 71.4027 58.0181V60.8364H69.6332V57.5181H70.9027ZM67.3627 57.5181H68.6332V60.8364H66.8627V58.0181C66.8627 57.7419 67.0865 57.5181 67.3627 57.5181Z" stroke="black"/>
<path d="M80.0396 40.3271V43.6445H78.769C78.4929 43.6445 78.269 43.4207 78.269 43.1445V40.3271H80.0396ZM82.8091 40.3271V43.1445C82.8091 43.4207 82.5852 43.6445 82.3091 43.6445H81.0396V40.3271H82.8091ZM82.3091 36.0088C82.5852 36.0088 82.8091 36.2326 82.8091 36.5088V39.3271H81.0396V36.0088H82.3091ZM78.769 36.0088H80.0396V39.3271H78.269V36.5088C78.269 36.2326 78.4929 36.0088 78.769 36.0088Z" stroke="black"/>
<path d="M86.5573 41.3049V44.6223H85.2867C85.0106 44.6223 84.7867 44.3985 84.7867 44.1223V41.3049H86.5573ZM89.3268 41.3049V44.1223C89.3268 44.3985 89.1029 44.6223 88.8268 44.6223H87.5573V41.3049H89.3268ZM88.8268 36.9866C89.1029 36.9866 89.3268 37.2104 89.3268 37.4866V40.3049H87.5573V36.9866H88.8268ZM85.2867 36.9866H86.5573V40.3049H84.7867V37.4866C84.7867 37.2104 85.0106 36.9866 85.2867 36.9866Z" stroke="black"/>
<path d="M80.0396 51.7334V55.0508H78.769C78.4929 55.0508 78.269 54.8269 78.269 54.5508V51.7334H80.0396ZM82.8091 51.7334V54.5508C82.8091 54.8269 82.5852 55.0508 82.3091 55.0508H81.0396V51.7334H82.8091ZM82.3091 47.415C82.5852 47.415 82.8091 47.6389 82.8091 47.915V50.7334H81.0396V47.415H82.3091ZM78.769 47.415H80.0396V50.7334H78.269V47.915C78.269 47.6389 78.4929 47.415 78.769 47.415Z" stroke="black"/>
<path d="M86.5573 52.2222V55.5396H85.2867C85.0106 55.5396 84.7867 55.3157 84.7867 55.0396V52.2222H86.5573ZM89.3268 52.2222V55.0396C89.3268 55.3157 89.1029 55.5396 88.8268 55.5396H87.5573V52.2222H89.3268ZM88.8268 47.9038C89.1029 47.9038 89.3268 48.1277 89.3268 48.4038V51.2222H87.5573V47.9038H88.8268ZM85.2867 47.9038H86.5573V51.2222H84.7867V48.4038C84.7867 48.1277 85.0106 47.9038 85.2867 47.9038Z" stroke="black"/>
<path d="M80.0396 62.488V65.8054H78.769C78.4929 65.8054 78.269 65.5816 78.269 65.3054V62.488H80.0396ZM82.8091 62.488V65.3054C82.8091 65.5816 82.5852 65.8054 82.3091 65.8054H81.0396V62.488H82.8091ZM82.3091 58.1697C82.5852 58.1697 82.8091 58.3935 82.8091 58.6697V61.488H81.0396V58.1697H82.3091ZM78.769 58.1697H80.0396V61.488H78.269V58.6697C78.269 58.3935 78.4929 58.1697 78.769 58.1697Z" stroke="black"/>
<path d="M86.5573 63.1399V66.4573H85.2867C85.0106 66.4573 84.7867 66.2334 84.7867 65.9573V63.1399H86.5573ZM89.3268 63.1399V65.9573C89.3268 66.2334 89.1029 66.4573 88.8268 66.4573H87.5573V63.1399H89.3268ZM88.8268 58.8215C89.1029 58.8215 89.3268 59.0454 89.3268 59.3215V62.1399H87.5573V58.8215H88.8268ZM85.2867 58.8215H86.5573V62.1399H84.7867V59.3215C84.7867 59.0454 85.0106 58.8215 85.2867 58.8215Z" stroke="black"/>
<path d="M68.6332 50.9187V54.2361H67.3627C67.0865 54.2361 66.8627 54.0122 66.8627 53.7361V50.9187H68.6332ZM71.4027 50.9187V53.7361C71.4027 54.0122 71.1789 54.2361 70.9027 54.2361H69.6332V50.9187H71.4027ZM70.9027 46.6003C71.1789 46.6003 71.4027 46.8242 71.4027 47.1003V49.9187H69.6332V46.6003H70.9027ZM67.3627 46.6003H68.6332V49.9187H66.8627V47.1003C66.8627 46.8242 67.0865 46.6003 67.3627 46.6003Z" stroke="black"/>
<path d="M60.9747 61.8364V65.1538H59.7042C59.4281 65.1538 59.2042 64.93 59.2042 64.6538V61.8364H60.9747ZM63.7443 61.8364V64.6538C63.7443 64.93 63.5204 65.1538 63.2443 65.1538H61.9747V61.8364H63.7443ZM63.2443 57.5181C63.5204 57.5181 63.7443 57.7419 63.7443 58.0181V60.8364H61.9747V57.5181H63.2443ZM59.7042 57.5181H60.9747V60.8364H59.2042V58.0181C59.2042 57.7419 59.4281 57.5181 59.7042 57.5181Z" stroke="black"/>
<path d="M68.6332 39.3496V42.667H67.3627C67.0865 42.667 66.8627 42.4431 66.8627 42.167V39.3496H68.6332ZM71.4027 39.3496V42.167C71.4027 42.4431 71.1789 42.667 70.9027 42.667H69.6332V39.3496H71.4027ZM70.9027 35.0312C71.1789 35.0312 71.4027 35.2551 71.4027 35.5312V38.3496H69.6332V35.0312H70.9027ZM67.3627 35.0312H68.6332V38.3496H66.8627V35.5312C66.8627 35.2551 67.0865 35.0313 67.3627 35.0312Z" stroke="black"/>
<path d="M60.9747 50.4299V53.7473H59.7042C59.4281 53.7473 59.2042 53.5235 59.2042 53.2473V50.4299H60.9747ZM63.7443 50.4299V53.2473C63.7443 53.5235 63.5204 53.7473 63.2443 53.7473H61.9747V50.4299H63.7443ZM63.2443 46.1116C63.5204 46.1116 63.7443 46.3354 63.7443 46.6116V49.4299H61.9747V46.1116H63.2443ZM59.7042 46.1116H60.9747V49.4299H59.2042V46.6116C59.2042 46.3354 59.4281 46.1116 59.7042 46.1116Z" stroke="black"/>
<path d="M53.3163 49.9412V53.2585H52.0458C51.7696 53.2585 51.5458 53.0347 51.5458 52.7585V49.9412H53.3163ZM56.0858 49.9412V52.7585C56.0858 53.0347 55.862 53.2585 55.5858 53.2585H54.3163V49.9412H56.0858ZM55.5858 45.6228C55.862 45.6228 56.0858 45.8467 56.0858 46.1228V48.9412H54.3163V45.6228H55.5858ZM52.0458 45.6228H53.3163V48.9412H51.5458V46.1228C51.5458 45.8467 51.7696 45.6228 52.0458 45.6228Z" stroke="black"/>
<path d="M60.9747 38.5349V41.8523H59.7042C59.4281 41.8523 59.2042 41.6284 59.2042 41.3523V38.5349H60.9747ZM63.7443 38.5349V41.3523C63.7443 41.6284 63.5204 41.8523 63.2443 41.8523H61.9747V38.5349H63.7443ZM63.2443 34.2166C63.5204 34.2166 63.7443 34.4404 63.7443 34.7166V37.5349H61.9747V34.2166H63.2443ZM59.7042 34.2166H60.9747V37.5349H59.2042V34.7166C59.2042 34.4404 59.4281 34.2166 59.7042 34.2166Z" stroke="black"/>
<path d="M53.3163 61.8364V65.1538H52.0458C51.7696 65.1538 51.5458 64.93 51.5458 64.6538V61.8364H53.3163ZM56.0858 61.8364V64.6538C56.0858 64.93 55.862 65.1538 55.5858 65.1538H54.3163V61.8364H56.0858ZM55.5858 57.5181C55.862 57.5181 56.0858 57.7419 56.0858 58.0181V60.8364H54.3163V57.5181H55.5858ZM52.0458 57.5181H53.3163V60.8364H51.5458V58.0181C51.5458 57.7419 51.7696 57.5181 52.0458 57.5181Z" stroke="black"/>
<path d="M53.3163 37.8831V41.2004H52.0458C51.7696 41.2004 51.5458 40.9766 51.5458 40.7004V37.8831H53.3163ZM56.0858 37.8831V40.7004C56.0858 40.9766 55.862 41.2004 55.5858 41.2004H54.3163V37.8831H56.0858ZM55.5858 33.5647C55.862 33.5647 56.0858 33.7886 56.0858 34.0647V36.8831H54.3163V33.5647H55.5858ZM52.0458 33.5647H53.3163V36.8831H51.5458V34.0647C51.5458 33.7886 51.7696 33.5647 52.0458 33.5647Z" stroke="black"/>
<path d="M44.1913 61.3472V64.6646H42.9208C42.6446 64.6646 42.4208 64.4407 42.4208 64.1646V61.3472H44.1913ZM46.9608 61.3472V64.1646C46.9608 64.4407 46.737 64.6646 46.4608 64.6646H45.1913V61.3472H46.9608ZM46.4608 57.0288C46.737 57.0288 46.9608 57.2527 46.9608 57.5288V60.3472H45.1913V57.0288H46.4608ZM42.9208 57.0288H44.1913V60.3472H42.4208V57.5288C42.4208 57.2527 42.6446 57.0288 42.9208 57.0288Z" stroke="black"/>
<path d="M44.1913 48.9634V52.2808H42.9208C42.6446 52.2808 42.4208 52.0569 42.4208 51.7808V48.9634H44.1913ZM46.9608 48.9634V51.7808C46.9608 52.0569 46.737 52.2808 46.4608 52.2808H45.1913V48.9634H46.9608ZM46.4608 44.645C46.737 44.645 46.9608 44.8689 46.9608 45.145V47.9634H45.1913V44.645H46.4608ZM42.9208 44.645H44.1913V47.9634H42.4208V45.145C42.4208 44.8689 42.6446 44.645 42.9208 44.645Z" stroke="black"/>
<path d="M44.1913 37.2314V40.5488H42.9208C42.6446 40.5488 42.4208 40.325 42.4208 40.0488V37.2314H44.1913ZM46.9608 37.2314V40.0488C46.9608 40.325 46.737 40.5488 46.4608 40.5488H45.1913V37.2314H46.9608ZM46.4608 32.9131C46.737 32.9131 46.9608 33.1369 46.9608 33.4131V36.2314H45.1913V32.9131H46.4608ZM42.9208 32.9131H44.1913V36.2314H42.4208V33.4131C42.4208 33.1369 42.6446 32.9131 42.9208 32.9131Z" stroke="black"/>
<path d="M30.178 60.3696V63.687H28.9075C28.6313 63.687 28.4075 63.4632 28.4075 63.187V60.3696H30.178ZM32.9475 60.3696V63.187C32.9475 63.4632 32.7237 63.687 32.4475 63.687H31.178V60.3696H32.9475ZM32.4475 56.0513C32.7237 56.0513 32.9475 56.2751 32.9475 56.5513V59.3696H31.178V56.0513H32.4475ZM28.9075 56.0513H30.178V59.3696H28.4075V56.5513C28.4075 56.2751 28.6313 56.0513 28.9075 56.0513Z" stroke="black"/>
<path d="M23.0082 60.3696V63.687H21.7377C21.4615 63.687 21.2377 63.4632 21.2377 63.187V60.3696H23.0082ZM25.7777 60.3696V63.187C25.7777 63.4632 25.5539 63.687 25.2777 63.687H24.0082V60.3696H25.7777ZM25.2777 56.0513C25.5539 56.0513 25.7777 56.2751 25.7777 56.5513V59.3696H24.0082V56.0513H25.2777ZM21.7377 56.0513H23.0082V59.3696H21.2377V56.5513C21.2377 56.2751 21.4615 56.0513 21.7377 56.0513Z" stroke="black"/>
<path d="M30.178 47.9856V51.303H28.9075C28.6313 51.303 28.4075 51.0791 28.4075 50.803V47.9856H30.178ZM32.9475 47.9856V50.803C32.9475 51.0791 32.7237 51.303 32.4475 51.303H31.178V47.9856H32.9475ZM32.4475 43.6672C32.7237 43.6672 32.9475 43.8911 32.9475 44.1672V46.9856H31.178V43.6672H32.4475ZM28.9075 43.6672H30.178V46.9856H28.4075V44.1672C28.4075 43.8911 28.6313 43.6672 28.9075 43.6672Z" stroke="black"/>
<path d="M23.0082 47.6599V50.9773H21.7377C21.4615 50.9773 21.2377 50.7534 21.2377 50.4773V47.6599H23.0082ZM25.7777 47.6599V50.4773C25.7777 50.7534 25.5539 50.9773 25.2777 50.9773H24.0082V47.6599H25.7777ZM25.2777 43.3416C25.5539 43.3416 25.7777 43.5654 25.7777 43.8416V46.6599H24.0082V43.3416H25.2777ZM21.7377 43.3416H23.0082V46.6599H21.2377V43.8416C21.2377 43.5654 21.4615 43.3416 21.7377 43.3416Z" stroke="black"/>
<path d="M30.178 35.7649V39.0823H28.9075C28.6313 39.0823 28.4075 38.8584 28.4075 38.5823V35.7649H30.178ZM32.9475 35.7649V38.5823C32.9475 38.8584 32.7237 39.0823 32.4475 39.0823H31.178V35.7649H32.9475ZM32.4475 31.4465C32.7237 31.4465 32.9475 31.6704 32.9475 31.9465V34.7649H31.178V31.4465H32.4475ZM28.9075 31.4465H30.178V34.7649H28.4075V31.9465C28.4075 31.6704 28.6313 31.4465 28.9075 31.4465Z" stroke="black"/>
<path d="M26.6038 69.9016C31.4063 69.9016 35.2285 73.7936 35.2288 78.6077V85.7551C35.2288 86.0313 35.0049 86.2551 34.7288 86.2551H18.4788C18.2026 86.2551 17.9788 86.0313 17.9788 85.7551V78.6077L17.9895 78.1594C18.2183 73.5543 21.9512 69.9016 26.6038 69.9016Z" stroke="black"/>
<path d="M20.4117 72.3347C20.4117 72.3347 17.7377 72.3347 21.9597 72.3347C26.1817 72.3347 29.5367 75.7406 29.5367 79.9419V86.674" stroke="black"/>
<path d="M12.6715 26.4216C12.8259 26.0637 13.3131 26.0126 13.5389 26.3304L14.0092 26.9923C14.1173 27.1444 14.131 27.3445 14.0458 27.5105L8.28516 38.7332C8.15635 38.9836 7.8238 39.0408 7.61895 38.8476C7.48976 38.7255 7.44989 38.5355 7.52018 38.3723L12.6715 26.4216Z" stroke="black"/>
<path d="M14.3438 24.7839L94.1416 33.3279C94.4862 33.3648 94.6899 33.7331 94.5381 34.0447L93.9248 35.3035C93.8316 35.4943 93.6279 35.6056 93.417 35.5808L54.4043 30.9792L54.3916 30.9773L14.9307 27.325C14.7507 27.3082 14.594 27.1952 14.5205 27.03L13.833 25.4841C13.6769 25.1322 13.9609 24.7429 14.3438 24.7839Z" stroke="black"/>
<line x1="42.9094" y1="80.4819" x2="42.9094" y2="86.6739" stroke="black"/>
<line x1="39.1619" y1="80.4819" x2="39.1619" y2="86.6739" stroke="black"/>
<line x1="74.5214" y1="31.4351" x2="74.5214" y2="86.6738" stroke="black"/>
<line x1="39.1619" y1="27.3616" x2="39.1619" y2="86.674" stroke="black"/>
<line x1="70.9362" y1="80.4819" x2="70.9362" y2="86.6739" stroke="black"/>
<line x1="88.8604" y1="80.4819" x2="88.8604" y2="86.6739" stroke="black"/>
<line x1="85.6016" y1="80.4819" x2="85.6016" y2="86.6739" stroke="black"/>
<line x1="82.0167" y1="80.4819" x2="82.0167" y2="86.6739" stroke="black"/>
<line x1="78.269" y1="80.4819" x2="78.269" y2="86.6739" stroke="black"/>
<line x1="67.3516" y1="80.4819" x2="67.3516" y2="86.6739" stroke="black"/>
<line x1="63.115" y1="80.4819" x2="63.115" y2="86.6739" stroke="black"/>
<line x1="59.2042" y1="80.4819" x2="59.2042" y2="86.6739" stroke="black"/>
<line x1="46.8202" y1="80.4819" x2="46.8202" y2="86.6739" stroke="black"/>
<line x1="14.0722" y1="64.6653" x2="93.7529" y2="67.1095" stroke="black"/>
<line x1="35.547" y1="17.9026" x2="38.806" y2="26.8647" stroke="black"/>
<path d="M9.901 73.7864C9.97388 73.7572 10.0532 73.8105 10.0533 73.8889V78.8118C10.0533 78.873 10.0042 78.9229 9.94299 78.9231C9.88166 78.9231 9.83167 78.8731 9.83167 78.8118V73.8889C9.83174 73.8438 9.8592 73.8033 9.901 73.7864Z" stroke="black"/>
<path d="M11.6934 58.3064C11.7662 58.2772 11.8456 58.3305 11.8457 58.4089V63.3318C11.8457 63.393 11.7966 63.443 11.7354 63.4431C11.674 63.4431 11.624 63.3931 11.624 63.3318V58.4089C11.6241 58.3638 11.6516 58.3234 11.6934 58.3064Z" stroke="black"/>
<path d="M9.901 49.0183C9.97388 48.9892 10.0532 49.0424 10.0533 49.1208V54.0437C10.0533 54.1049 10.0042 54.1549 9.94299 54.155C9.88166 54.155 9.83167 54.105 9.83167 54.0437V49.1208C9.83174 49.0757 9.8592 49.0353 9.901 49.0183Z" stroke="black"/>
<path d="M12.0193 46.2483C12.0922 46.2191 12.1715 46.2724 12.1716 46.3508V51.2737C12.1716 51.3349 12.1225 51.3849 12.0613 51.385C11.9999 51.385 11.95 51.335 11.95 51.2737V46.3508C11.95 46.3057 11.9775 46.2653 12.0193 46.2483Z" stroke="black"/>
<path d="M9.901 39.8933C9.97388 39.8642 10.0532 39.9174 10.0533 39.9958V44.9187C10.0533 44.9799 10.0042 45.0299 9.94299 45.03C9.88166 45.03 9.83167 44.98 9.83167 44.9187V39.9958C9.83174 39.9507 9.8592 39.9103 9.901 39.8933Z" stroke="black"/>
<path d="M12.0193 35.168C12.0922 35.1388 12.1715 35.1921 12.1716 35.2705V40.1934C12.1716 40.2546 12.1225 40.3045 12.0613 40.3047C11.9999 40.3047 11.95 40.2547 11.95 40.1934V35.2705C11.95 35.2254 11.9775 35.1849 12.0193 35.168Z" stroke="black"/>
<path d="M9.901 60.2617C9.97388 60.2326 10.0532 60.2858 10.0533 60.3643V65.2871C10.0533 65.3483 10.0042 65.3983 9.94299 65.3984C9.88166 65.3984 9.83167 65.3484 9.83167 65.2871V60.3643C9.83174 60.3191 9.8592 60.2787 9.901 60.2617Z" stroke="black"/>
</svg>
